<svg width="100" height="24" viewBox="0 0 100 24" fill="none" xmlns="http://www.w3.org/2000/svg">
<path d="M14.6705 15.1081L12.7097 19.2281C12.6726 19.306 12.6171 19.3737 12.548 19.4254C12.4789 19.477 12.3983 19.5111 12.313 19.5246C12.2278 19.5381 12.1406 19.5307 12.0589 19.503C11.9772 19.4753 11.9035 19.4281 11.8441 19.3655L8.70576 16.0526C8.62192 15.9642 8.51026 15.9073 8.38945 15.8913L3.86452 15.2995C3.77903 15.2882 3.69756 15.2563 3.62714 15.2066C3.55672 15.1568 3.49946 15.0906 3.46031 15.0138C3.42115 14.937 3.40128 14.8518 3.40239 14.7656C3.4035 14.6793 3.42557 14.5947 3.46669 14.5189L5.64809 10.5105C5.70608 10.4033 5.72547 10.2794 5.70302 10.1596L4.8675 5.67369C4.85163 5.58878 4.8567 5.50129 4.88225 5.41877C4.90781 5.33626 4.95308 5.26122 5.01416 5.20014C5.07524 5.13906 5.15028 5.09378 5.2328 5.06823C5.31531 5.04267 5.40281 5.03761 5.48772 5.05348L9.97367 5.889C10.0935 5.91145 10.2173 5.89206 10.3245 5.83406L14.3329 3.65267C14.4088 3.61153 14.4935 3.58948 14.5798 3.58842C14.6661 3.58736 14.7513 3.60731 14.8282 3.64656C14.905 3.68581 14.9711 3.74318 15.0209 3.81371C15.0706 3.88424 15.1024 3.96581 15.1135 4.05138L15.7054 8.57543C15.7213 8.69623 15.7782 8.8079 15.8666 8.89174L19.1795 12.03C19.2421 12.0894 19.2893 12.1632 19.317 12.2449C19.3447 12.3266 19.3522 12.4138 19.3386 12.499C19.3251 12.5842 19.2911 12.6649 19.2394 12.734C19.1877 12.8031 19.12 12.8586 19.0421 12.8957L14.9221 14.8565C14.8118 14.9089 14.723 14.9978 14.6705 15.1081ZM15.3767 16.8155L16.6295 15.5626L20.3889 19.3212L19.1352 20.5749L15.3767 16.8155Z" fill="#3B3B3B"/>
<path d="M26.8568 19V5.21737H29.1211V12.3253L35.4414 5.21737H38.1979L33.1377 11.0061L38.572 19H35.8352L31.5035 12.6797L29.1211 15.3574V19H26.8568ZM44.0383 19.1181C40.8683 19.1181 38.8797 17.0704 38.8797 13.9792C38.8797 10.8682 40.8683 8.80085 43.8414 8.80085C46.7555 8.80085 48.7047 10.6517 48.7638 13.6051C48.7638 13.861 48.7441 14.1367 48.7047 14.4124H41.1046V14.5502C41.1637 16.2632 42.2466 17.3855 43.9202 17.3855C45.2197 17.3855 46.1648 16.7357 46.4601 15.6134H48.5866C48.2322 17.602 46.5389 19.1181 44.0383 19.1181ZM41.1834 12.8569H46.5586C46.3814 11.3605 45.3378 10.5138 43.8611 10.5138C42.5026 10.5138 41.3409 11.4196 41.1834 12.8569ZM52.9355 19.0591L49.0173 8.91899H51.2816L54.0972 16.5782L56.834 8.91899H59.0983L54.5304 20.5752C53.9003 22.2094 53.4671 22.9379 51.9904 22.9379H49.7064V21.0674H51.2028C52.0298 21.0674 52.2267 20.8705 52.5417 20.0435L52.9355 19.0591ZM60.3904 19V5.21737H63.3242L67.7346 16.0663L72.0663 5.21737H74.941V19H72.7554V8.85992L68.6206 19H66.7108L62.576 8.85992V19H60.3904ZM86.463 17.1492H86.8962V19H85.7739C84.3956 19 83.923 18.3896 83.923 17.3855C83.2536 18.4093 82.2298 19.1181 80.5955 19.1181C78.3903 19.1181 76.8545 18.0352 76.8545 16.1647C76.8545 14.0973 78.3509 12.9356 81.1665 12.9356H83.7065V12.3253C83.7065 11.203 82.8992 10.5138 81.5012 10.5138C80.2411 10.5138 79.3945 11.1045 79.237 11.9905H77.1499C77.3665 10.0216 79.0597 8.80085 81.5997 8.80085C84.2775 8.80085 85.8132 10.0807 85.8132 12.4631V16.4994C85.8132 17.0114 86.0298 17.1492 86.463 17.1492ZM83.7065 14.8652V14.5108H81.0681C79.7489 14.5108 79.0204 15.003 79.0204 16.0269C79.0204 16.8735 79.7292 17.4642 80.8909 17.4642C82.6629 17.4642 83.6868 16.4207 83.7065 14.8652ZM93.4494 8.80085C96.2059 8.80085 98.2142 10.7304 98.2142 13.9595C98.2142 17.0704 96.2059 19.1181 93.4494 19.1181C91.8939 19.1181 90.811 18.4881 90.1809 17.5824V22.9379H88.0544V8.91899H89.9053L90.1612 10.4154C90.8307 9.52936 91.8742 8.80085 93.4494 8.80085ZM93.095 17.3264C94.867 17.3264 96.0484 15.9284 96.0484 13.9595C96.0484 11.9709 94.867 10.6123 93.095 10.6123C91.3229 10.6123 90.1612 11.9709 90.1612 13.9201C90.1612 15.9284 91.3229 17.3264 93.095 17.3264Z" fill="#3B3B3B"/>
</svg>
